# xmcd CD database file
# Copyright (C) 1993-1998 Ti Kan
#
# Track frame offsets:
#  187
#  20652
#  35502
#  63702
#  82417
#  105147
#  132747
#  149975
#  170427
#  187055
#
# Disc length: 2778 seconds
#
# Revision: 1
# Processed by: cddbd v1.4b41PL1 Copyright (c) Steve Scherf et al.
# Submitted via: CDWizzard Release:4.35
#
DISCID=9e0ad80a
DTITLE=Jackson Family - Jackson Family
DYEAR=1900
DGENRE=
TTITLE0=Hand In Hand
TTITLE1=The Time Is Near
TTITLE2=Family
TTITLE3=Do Right
TTITLE4=Never Be A Tiem
TTITLE5=I Need You Now
TTITLE6=Somebody Loves You
TTITLE7=We Need Jesus
TTITLE8=Living By Faith
TTITLE9=Home
EXTD=
EXTT0=
EXTT1=
EXTT2=
EXTT3=
EXTT4=
EXTT5=
EXTT6=
EXTT7=
EXTT8=
EXTT9=
PLAYORDER=
